<svg width="20" height="18" viewBox="0 0 20 18" fill="none" xmlns="http://www.w3.org/2000/svg">
<path d="M4.4375 2.001C4.43724 2.53143 4.22627 3.04004 3.85101 3.41492C3.47575 3.78981 2.96693 4.00027 2.4365 4C1.90607 3.99974 1.39746 3.78877 1.02258 3.41351C0.647694 3.03825 0.437235 2.52943 0.4375 1.999C0.437765 1.46857 0.648733 0.959965 1.02399 0.585079C1.39925 0.210194 1.90807 -0.000264966 2.4385 2.50361e-07C2.96893 0.000265467 3.47754 0.211233 3.85242 0.586494C4.22731 0.961754 4.43777 1.47057 4.4375 2.001ZM4.4975 5.481H0.4975V18.001H4.4975V5.481ZM10.8175 5.481H6.8375V18.001H10.7775V11.431C10.7775 7.771 15.5475 7.431 15.5475 11.431V18.001H19.4975V10.071C19.4975 3.901 12.4375 4.131 10.7775 7.161L10.8175 5.481Z" fill="#2C3E50"/>
</svg>
