<svg width="21" height="17" viewBox="0 0 21 17" fill="none" xmlns="http://www.w3.org/2000/svg">
<path d="M20.9591 2C20.1891 2.35 19.3591 2.58 18.4991 2.69C19.3791 2.16 20.0591 1.32 20.3791 0.31C19.5491 0.81 18.6291 1.16 17.6591 1.36C16.8691 0.5 15.7591 0 14.4991 0C12.1491 0 10.2291 1.92 10.2291 4.29C10.2291 4.63 10.2691 4.96 10.3391 5.27C6.77906 5.09 3.60906 3.38 1.49906 0.79C1.12906 1.42 0.919063 2.16 0.919063 2.94C0.919063 4.43 1.66906 5.75 2.82906 6.5C2.11906 6.5 1.45906 6.3 0.879063 6V6.03C0.879063 8.11 2.35906 9.85 4.31906 10.24C3.6899 10.4129 3.0291 10.4369 2.38906 10.31C2.66067 11.1625 3.1926 11.9084 3.91008 12.4429C4.62756 12.9775 5.49451 13.2737 6.38906 13.29C4.87273 14.4905 2.99307 15.1394 1.05906 15.13C0.719062 15.13 0.379063 15.11 0.0390625 15.07C1.93906 16.29 4.19906 17 6.61906 17C14.4991 17 18.8291 10.46 18.8291 4.79C18.8291 4.6 18.8291 4.42 18.8191 4.23C19.6591 3.63 20.3791 2.87 20.9591 2Z" fill="#2C3E50"/>
</svg>
